<svg width="25" height="22" viewBox="0 0 25 22" fill="none" xmlns="http://www.w3.org/2000/svg">
<path d="M14.1667 0.5C8.36834 0.5 3.66667 5.20167 3.66667 11H0.166672L4.70501 15.5383L4.78667 15.7017L9.50001 11H6.00001C6.00001 6.485 9.65167 2.83333 14.1667 2.83333C18.6817 2.83333 22.3333 6.485 22.3333 11C22.3333 15.515 18.6817 19.1667 14.1667 19.1667C11.915 19.1667 9.87334 18.245 8.40334 16.7633L6.74667 18.42C8.64834 20.3217 11.2617 21.5 14.1667 21.5C19.965 21.5 24.6667 16.7983 24.6667 11C24.6667 5.20167 19.965 0.5 14.1667 0.5ZM13 6.33333V12.1667L17.9583 15.1067L18.8567 13.6133L14.75 11.175V6.33333H13Z" fill="#848C91"/>
</svg>
