<svg width="24" height="24" viewBox="0 0 24 24" fill="none" xmlns="http://www.w3.org/2000/svg">
<circle cx="12" cy="12" r="12" fill="#006CB7"/>
<path d="M14.8828 15.125C14.8828 14.8594 14.8411 14.625 14.7578 14.4219C14.6797 14.2135 14.5391 14.026 14.3359 13.8594C14.138 13.6927 13.862 13.5339 13.5078 13.3828C13.1589 13.2318 12.7161 13.0781 12.1797 12.9219C11.6172 12.7552 11.1094 12.5703 10.6562 12.3672C10.2031 12.1589 9.8151 11.9219 9.49219 11.6562C9.16927 11.3906 8.92188 11.0859 8.75 10.7422C8.57812 10.3984 8.49219 10.0052 8.49219 9.5625C8.49219 9.11979 8.58333 8.71094 8.76562 8.33594C8.94792 7.96094 9.20833 7.63542 9.54688 7.35938C9.89062 7.07812 10.2995 6.85938 10.7734 6.70312C11.2474 6.54688 11.776 6.46875 12.3594 6.46875C13.2135 6.46875 13.9375 6.63281 14.5312 6.96094C15.1302 7.28385 15.5859 7.70833 15.8984 8.23438C16.2109 8.75521 16.3672 9.3125 16.3672 9.90625H14.8672C14.8672 9.47917 14.776 9.10156 14.5938 8.77344C14.4115 8.4401 14.1354 8.17969 13.7656 7.99219C13.3958 7.79948 12.9271 7.70312 12.3594 7.70312C11.8229 7.70312 11.3802 7.78385 11.0312 7.94531C10.6823 8.10677 10.4219 8.32552 10.25 8.60156C10.0833 8.8776 10 9.19271 10 9.54688C10 9.78646 10.0495 10.0052 10.1484 10.2031C10.2526 10.3958 10.4115 10.5755 10.625 10.7422C10.8438 10.9089 11.1198 11.0625 11.4531 11.2031C11.7917 11.3438 12.1953 11.4792 12.6641 11.6094C13.3099 11.7917 13.8672 11.9948 14.3359 12.2188C14.8047 12.4427 15.1901 12.6953 15.4922 12.9766C15.7995 13.2526 16.026 13.5677 16.1719 13.9219C16.3229 14.2708 16.3984 14.6667 16.3984 15.1094C16.3984 15.5729 16.3047 15.9922 16.1172 16.3672C15.9297 16.7422 15.6615 17.0625 15.3125 17.3281C14.9635 17.5938 14.5443 17.7995 14.0547 17.9453C13.5703 18.0859 13.0286 18.1562 12.4297 18.1562C11.9036 18.1562 11.3854 18.0833 10.875 17.9375C10.3698 17.7917 9.90885 17.5729 9.49219 17.2812C9.08073 16.9896 8.75 16.6302 8.5 16.2031C8.25521 15.7708 8.13281 15.2708 8.13281 14.7031H9.63281C9.63281 15.0938 9.70833 15.4297 9.85938 15.7109C10.0104 15.987 10.2161 16.2161 10.4766 16.3984C10.7422 16.5807 11.0417 16.7161 11.375 16.8047C11.7135 16.888 12.0651 16.9297 12.4297 16.9297C12.9557 16.9297 13.401 16.8568 13.7656 16.7109C14.1302 16.5651 14.4062 16.3568 14.5938 16.0859C14.7865 15.8151 14.8828 15.4948 14.8828 15.125Z" fill="white"/>
</svg>
